<svg id="inverse" xmlns="http://www.w3.org/2000/svg" viewBox="0 0 1660 560"><defs><style>.cls-1{fill:#2d2d2d;}</style></defs><path class="cls-1" d="M1660,560H0V0H1660ZM298.17,365.62c21.23-21,32.93-49.38,32.93-79.85s-11.7-58.83-32.93-79.85a114.22,114.22,0,0,0-159.33,0c-21.23,21-32.93,49.37-32.93,79.85s11.7,58.83,32.93,79.85a114.24,114.24,0,0,0,159.33,0Zm7.93-79.85c0,48.9-38.48,87.21-87.6,87.21s-87.59-38.31-87.59-87.21,38.48-87.22,87.59-87.22S306.1,236.86,306.1,285.77ZM423.86,446.3V388.13C436.32,394.68,451,398,467.63,398c27.65,0,53.54-11.65,72.91-32.81s29.87-49.23,29.87-79.4-10.61-58.37-29.87-79.41-45.26-32.81-72.91-32.81c-18.94,0-35.25,4.26-48.72,12.7-3.9-4.65-9.85-7.41-17-7.41H364.14c-12.92,0-21.94,9-21.94,21.94V446.3a12.5,12.5,0,0,0,25,0V203.84h31.66v38.35l21.9-25c11-12.56,26.35-18.67,46.87-18.67s39.9,8.77,54.48,24.7c15,16.41,23.3,38.61,23.3,62.52s-8.28,46.11-23.3,62.52C507.53,364.21,488.18,373,467.63,373s-35.86-6.1-46.87-18.66l-21.9-25v117a12.5,12.5,0,1,0,25,0ZM402.13,203.85Zm-38.21,0Zm3.29-3.29ZM790.15,347a24.34,24.34,0,0,0-.95-23.19,19.89,19.89,0,0,0-17-9.59H736c-6.93,0-12.9,1.08-19.52,6.38l-.2.16c-3.2,2.66-11.76,5.36-21.94,5.36-12.55,0-23-11.11-28.68-20.46H774.28A28,28,0,0,0,789.66,301a24,24,0,0,0,10.22-16,74.3,74.3,0,0,0,.85-13.7c0-31-10.59-54.71-30.64-72.39-18.82-16.59-45.11-25.36-76-25.36-31.92,0-61,11.52-81.84,32.43-20.56,20.61-31.89,49-31.89,79.79,0,31.08,11.19,59.42,31.51,79.79C633,386.77,661.94,398,695.56,398,741.37,398,773.19,380.83,790.15,347Zm-36.6-129.32c14.72,13,22.18,31.7,22.18,55.64a80,80,0,0,1-.45,8.18l-.09,1a2.91,2.91,0,0,1-.91.19H635.45a120.4,120.4,0,0,0-.44,16c1.72,22.63,25.17,52.42,59.31,52.42,5.74,0,25.4-.8,37.84-11.07.92-.74,1.12-.83,3.82-.83h30c-13,23-35.53,33.78-70.42,33.78-26.83,0-49.67-8.67-66-25.08-15.61-15.65-24.21-37.71-24.21-62.13,0-50.54,37.32-87.22,88.73-87.22C718.8,198.55,739.37,205.16,753.55,217.66Zm247.72,153.09V260.46c0-25.7-6.92-47.47-20-63s-31.83-23.94-52.95-23.94c-16.54,0-31.08,4-42.62,11.52a21.91,21.91,0,0,0-15.92-6.23H832c-12.92,0-21.95,9-21.95,21.94v170a12.5,12.5,0,1,0,25,0V203.84h31.66v45.54l22.85-33.79c7.54-11.15,20.94-17,38.75-17,29.57,0,47.94,23.72,47.94,61.91V370.75a12.5,12.5,0,0,0,25,0Zm232.48-196.06c-3.12-.32-9.37-.76-12.5-.84-18.88-.53-35.18,5.54-49.46,16.89-11.55-11-27.07-16.89-45-16.89A65.48,65.48,0,0,0,1089.51,185a22,22,0,0,0-15.57-5.88h-37.77c-12.92,0-21.94,9-21.94,21.94v89.45a29.42,29.42,0,0,1,21.94-9.82h3.06V204.14h31.65V250.3l22.93-34.61c4.16-6.29,14-16.84,33-16.84,14.93,0,26.13,5.64,33.28,16.75l8.69,13.49,11-11.72c11.62-12.44,24.58-18.34,40.72-18.52h.78c30.55,0,46,18.29,46,54.36V371.05a12.5,12.5,0,0,0,25,0V253.21C1292.29,208.36,1270.83,178.51,1233.75,174.69ZM1095.88,347.92V310.15a22,22,0,0,0-21.94-21.94h-37.77a22,22,0,0,0-21.94,21.94v37.77a22,22,0,0,0,21.94,21.94h37.77A22,22,0,0,0,1095.88,347.92Zm-56.65-34.71h31.65v31.65h-31.65Zm346.36,133.38V388.43c12.45,6.55,27.09,9.85,43.77,9.85,27.65,0,53.54-11.65,72.91-32.81s29.87-49.23,29.87-79.41-10.61-58.37-29.87-79.4-45.26-32.81-72.91-32.81c-18.94,0-35.25,4.26-48.72,12.7-3.9-4.65-9.85-7.41-17-7.41h-37.77c-12.92,0-21.94,9-21.94,21.94V446.59a12.5,12.5,0,0,0,25,0V204.14h31.66v38.34l21.89-25c11-12.57,26.36-18.67,46.88-18.67s39.9,8.77,54.48,24.69c15,16.41,23.3,38.62,23.3,62.52s-8.28,46.11-23.3,62.53c-14.59,15.92-33.93,24.69-54.48,24.69s-35.86-6.11-46.88-18.67l-21.89-25v117a12.5,12.5,0,0,0,25,0Z"/></svg>